<?xml version="1.0" encoding="utf-8"?>
<!-- Generator: Adobe Illustrator 25.4.8, SVG Export Plug-In . SVG Version: 6.00 Build 0)  -->
<svg version="1.1" id="CE" xmlns="http://www.w3.org/2000/svg" xmlns:xlink="http://www.w3.org/1999/xlink" x="0px" y="0px"
	 viewBox="0 0 301.5 178.4" style="enable-background:new 0 0 301.5 178.4;" xml:space="preserve">
<style type="text/css">
	.st0{opacity:0.5;}
	.st1{fill:#FFFFFF;}
</style>
<g id="paths" class="st0">
	<path class="st1" d="M108.9,33.3l-2.3,25.3l1,0.1l2.3-25.4c3.7-0.2,6.7-3.3,6.7-7.1c0-3.9-3.2-7.2-7.2-7.2s-7.2,3.2-7.2,7.2
		C102.3,29.9,105.2,33,108.9,33.3z M109.5,21c2.8,0,5.2,2.3,5.2,5.2s-2.3,5.2-5.2,5.2s-5.2-2.3-5.2-5.2S106.6,21,109.5,21z"/>
	<path class="st1" d="M149.2,21.1c-2.2,0-4.1,1.8-4.1,4.1c0,0.7,0.2,1.4,0.5,2l-4.5,3.4c-1.9-2.5-4.7-4.1-8-4.3l2.2-10.6
		c2.1-0.2,3.7-1.9,3.7-4c0-2.2-1.8-4.1-4.1-4.1s-4.1,1.8-4.1,4.1c0,2,1.5,3.7,3.4,4l-2.2,10.6c-5.9,0.2-10.6,5-10.6,10.9
		c0,3.7,1.8,6.9,4.6,8.9l-11.6,15.3l0.8,0.6L127,46.5c1.6,0.9,3.5,1.5,5.4,1.5c6,0,10.9-4.9,10.9-10.9c0-2.1-0.6-4-1.6-5.7l4.6-3.4
		c0.7,0.8,1.8,1.3,2.9,1.3c2.2,0,4.1-1.8,4.1-4.1C153.3,22.9,151.5,21.1,149.2,21.1z M133,11.5c0-1.1,0.9-2.1,2.1-2.1
		c1.1,0,2.1,0.9,2.1,2.1s-0.9,2.1-2.1,2.1C133.9,13.6,133,12.7,133,11.5z M132.5,46c-4.9,0-8.9-4-8.9-8.9s4-8.9,8.9-8.9
		s8.9,4,8.9,8.9S137.4,46,132.5,46z M149.2,27.2c-1.1,0-2.1-0.9-2.1-2.1s0.9-2.1,2.1-2.1c1.1,0,2.1,0.9,2.1,2.1
		S150.4,27.2,149.2,27.2z"/>
	<path class="st1" d="M82.3,8.2C82.3,8.2,82.3,8.2,82.3,8.2l5.5,9.5c-2,1.2-3.3,3.4-3.3,5.9c0,3.8,3.1,7,7,7c0.8,0,1.6-0.1,2.3-0.4
		l8.1,29.8l1-0.3l-8.2-30c2.2-1.2,3.7-3.5,3.7-6.2c0-3.8-3.1-7-7-7c-1,0-1.9,0.2-2.8,0.6L83.4,8c1.7-0.5,3-2,3-3.9
		c0-2.2-1.8-4.1-4.1-4.1s-4.1,1.8-4.1,4.1C78.2,6.3,80.1,8.2,82.3,8.2z M96.5,23.6c0,2.7-2.2,5-5,5c-2.7,0-5-2.2-5-5
		c0-2.7,2.2-5,5-5C94.2,18.7,96.5,20.9,96.5,23.6z M82.3,2c1.1,0,2.1,0.9,2.1,2.1c0,1.1-0.9,2.1-2.1,2.1s-2.1-0.9-2.1-2.1
		C80.2,2.9,81.2,2,82.3,2z"/>
	
		<rect x="106" y="80" transform="matrix(0.9982 -6.055404e-02 6.055404e-02 0.9982 -4.9338 6.6044)" class="st1" width="1" height="9.5"/>
	<path class="st1" d="M129,149.3c-2,0-3.6,1.4-4,3.2l-8.2-3c0.3-0.7,0.4-1.5,0.4-2.3c0-3.9-3.2-7.2-7.2-7.2c-2.2,0-4.2,1-5.5,2.6
		l-4.3-3.9c1.8-1.9,3-4.5,3-7.4c0-4.3-2.5-7.9-6.1-9.7l5.6-10.6l-0.9-0.5l-5.6,10.6c-1.2-0.5-2.5-0.7-3.8-0.7
		c-6,0-10.8,4.8-10.8,10.8c0,3.2,1.4,6.1,3.6,8l-11.5,14.2c-1-0.7-2.2-1.1-3.5-1.1c-3.4,0-6.1,2.7-6.1,6.1s2.7,6.1,6.1,6.1
		s6.1-2.7,6.1-6.1c0-1.7-0.7-3.3-1.9-4.4L86,140c1.8,1.3,4,2.1,6.4,2.1c2.7,0,5.2-1,7.1-2.7l4.5,4.1c-0.7,1.1-1.1,2.4-1.1,3.8
		c0,3.9,3.2,7.1,7.1,7.2l5.3,11.8c-2.9,0.5-5.2,3-5.2,6c0,3.4,2.7,6.1,6.1,6.1s6.1-2.7,6.1-6.1c0-3.3-2.7-6-6-6.1l-5.3-11.8
		c2.4-0.3,4.4-1.8,5.4-3.8l8.5,3.1c0.1,2.2,1.9,3.9,4.1,3.9c2.2,0,4.1-1.8,4.1-4.1S131.2,149.3,129,149.3z M70.2,162.6
		c-2.3,0-4.1-1.8-4.1-4.1c0-2.3,1.8-4.1,4.1-4.1s4.1,1.8,4.1,4.1C74.3,160.8,72.5,162.6,70.2,162.6z M92.4,140.1
		c-4.9,0-8.8-4-8.8-8.8s4-8.8,8.8-8.8s8.8,4,8.8,8.8S97.2,140.1,92.4,140.1z M120.3,172.3c0,2.3-1.8,4.1-4.1,4.1s-4.1-1.8-4.1-4.1
		c0-2.3,1.8-4.1,4.1-4.1S120.3,170,120.3,172.3z M110,152.4c-2.8,0-5.2-2.3-5.2-5.2s2.3-5.2,5.2-5.2s5.2,2.3,5.2,5.2
		S112.9,152.4,110,152.4z M129,155.5c-1.1,0-2.1-0.9-2.1-2.1s0.9-2.1,2.1-2.1s2.1,0.9,2.1,2.1S130.1,155.5,129,155.5z"/>
	<path class="st1" d="M99.1,62l0.5-0.8L55.7,32.5c0.6-0.7,0.9-1.6,0.9-2.5c0-2.2-1.8-4.1-4.1-4.1s-4.1,1.8-4.1,4.1s1.8,4.1,4.1,4.1
		c0.9,0,1.8-0.3,2.4-0.8L99.1,62z M52.5,32c-1.1,0-2.1-0.9-2.1-2.1s0.9-2.1,2.1-2.1s2.1,0.9,2.1,2.1S53.7,32,52.5,32z"/>
</g>
<g id="text">
	<polygon class="st1" points="5.5,103.1 17.2,103.1 17.2,98.2 5.5,98.2 5.5,93.2 18.8,93.2 18.8,88.3 0,88.3 0,88.3 0,113.2 
		19,113.2 19,108.3 5.5,108.3 	"/>
	<polygon class="st1" points="45.5,88.3 45.5,88.3 39.3,88.3 34,96.4 28.8,88.3 22.4,88.3 30.7,100.5 22,113.2 28.2,113.2 
		33.9,104.7 39.5,113.2 45.9,113.2 37.2,100.5 	"/>
	<polygon class="st1" points="49.5,88.3 49.5,88.3 49.5,88.3 	"/>
	<path class="st1" d="M59.7,88.3H49.5v24.9H55v-7.5h4.2c5.6,0,10.1-3,10.1-8.8v-0.1C69.2,91.8,65.6,88.3,59.7,88.3z M63.7,97.1
		c0,2.1-1.6,3.8-4.3,3.8H55v-7.6h4.2C61.9,93.3,63.7,94.6,63.7,97.1L63.7,97.1z"/>
	<polygon class="st1" points="78.6,88.3 73.1,88.3 73.1,113.2 91,113.2 91,108.2 78.6,108.2 	"/>
	<path class="st1" d="M106.5,87.9c-7.7,0-13.3,5.8-13.3,12.9v0.1c0,7.1,5.5,12.8,13.2,12.8s13.3-5.8,13.3-12.9v-0.1
		C119.7,93.6,114.1,87.9,106.5,87.9z M113.9,100.8c0,4.3-3.1,7.8-7.5,7.8c-4.4,0-7.5-3.6-7.5-7.8v-0.1c0-4.3,3.1-7.8,7.5-7.8
		C110.8,92.9,113.9,96.5,113.9,100.8L113.9,100.8z"/>
	<path class="st1" d="M145.2,96.6L145.2,96.6c0-2.4-0.7-4.4-2.1-5.8c-1.6-1.6-4.1-2.5-7.3-2.5h-11.4h0v24.9h5.5v-8h4.3l5.3,8h6.4
		l-6.1-8.9C143,103.1,145.2,100.6,145.2,96.6z M139.7,96.9c0,2.1-1.5,3.5-4.2,3.5c0,0-5.5,0-5.5,0v-7.2h5.4
		C138,93.3,139.7,94.5,139.7,96.9L139.7,96.9z"/>
	<polygon class="st1" points="169.2,108.3 155.6,108.3 155.6,103.1 167.4,103.1 167.4,98.2 155.6,98.2 155.6,93.2 169,93.2 
		169,88.3 150.2,88.3 150.2,88.3 150.2,113.2 169.2,113.2 	"/>
	<polygon class="st1" points="121.3,134.7 121.3,134.7 121.3,134.7 	"/>
	<path class="st1" d="M126.7,129.6c-2-0.5-2.4-0.7-2.4-1.5v0c0-0.5,0.5-1,1.5-1c1,0,2,0.4,3,1.1l1.3-1.9c-1.1-0.9-2.6-1.4-4.2-1.4
		c-2.3,0-4,1.4-4,3.4v0c0,2.2,1.5,2.9,3.8,3.5c1.9,0.5,2.3,0.8,2.3,1.4v0c0,0.7-0.6,1.1-1.6,1.1c-1.3,0-2.4-0.5-3.4-1.4l-1.5,1.8
		c1.4,1.2,3.1,1.8,4.8,1.8c2.4,0,4.2-1.3,4.2-3.5v0C130.3,131,129,130.2,126.7,129.6z"/>
	<path class="st1" d="M136.1,125L136.1,125l-4.9,11.4h2.5l1-2.5h4.8l1,2.5h2.6l-4.9-11.4H136.1z M138.7,131.6h-3l1.5-3.7
		L138.7,131.6L138.7,131.6z"/>
	<polygon class="st1" points="152.6,132 147.3,125 145,125 145,136.4 147.5,136.4 147.5,129.2 152.9,136.4 155.1,136.4 155.1,125 
		152.6,125 	"/>
	<polygon class="st1" points="166.2,125 156.8,125 156.8,127.3 160.3,127.3 160.3,136.4 162.8,136.4 162.8,127.3 166.2,127.3 	"/>
	<path class="st1" d="M170.7,125L170.7,125l-4.9,11.4h2.5l1-2.5h4.8l1,2.5h2.6L173,125H170.7z M173.3,131.6h-3l1.5-3.7L173.3,131.6
		L173.3,131.6z"/>
	<polygon class="st1" points="184.4,125 184.4,136.4 186.9,136.4 186.9,132 192.3,132 192.3,129.7 186.9,129.7 186.9,127.3 
		193.1,127.3 193.1,125 184.4,125 	"/>
	<polygon class="st1" points="197.5,131.8 202.9,131.8 202.9,129.6 197.5,129.6 197.5,127.3 203.6,127.3 203.6,125 195,125 
		195,136.4 203.7,136.4 203.7,134.2 197.5,134.2 	"/>
	<rect x="210.9" y="125" class="st1" width="2.5" height="11.3"/>
	<polygon class="st1" points="223.9,132 218.6,125 216.3,125 216.3,136.4 218.7,136.4 218.7,129.2 224.2,136.4 226.4,136.4 
		226.4,125 223.9,125 	"/>
	<path class="st1" d="M233.8,129.6c-2-0.5-2.5-0.7-2.5-1.5v0c0-0.5,0.5-1,1.5-1c1,0,2,0.4,3,1.1l1.3-1.9c-1.2-0.9-2.6-1.4-4.2-1.4
		c-2.3,0-4,1.4-4,3.4v0c0,2.2,1.5,2.9,3.8,3.5c1.9,0.5,2.3,0.8,2.3,1.4v0c0,0.7-0.6,1.1-1.6,1.1c-1.3,0-2.4-0.5-3.4-1.4l-1.5,1.8
		l0,0c1.4,1.2,3.1,1.8,4.8,1.8c2.4,0,4.2-1.3,4.2-3.5v0C237.4,131,236.1,130.2,233.8,129.6z"/>
	<polygon class="st1" points="238.7,127.3 242.2,127.3 242.2,136.4 244.7,136.4 244.7,127.3 248.1,127.3 248.1,125 238.7,125 	"/>
	<rect x="250" y="125" class="st1" width="2.5" height="11.3"/>
	<polygon class="st1" points="254.3,127.3 257.7,127.3 257.7,136.4 260.2,136.4 260.2,127.3 263.7,127.3 263.7,125 254.3,125 	"/>
	<path class="st1" d="M272.8,131.5c0,1.8-0.9,2.7-2.5,2.7c-1.5,0-2.5-1-2.5-2.8V125h-2.5v6.5h0c0,3.3,1.9,5,4.9,5c3,0,5-1.7,5-5.1
		V125h-2.5V131.5z"/>
	<polygon class="st1" points="277,127.3 280.4,127.3 280.4,136.4 282.9,136.4 282.9,127.3 286.3,127.3 286.3,125 277,125 	"/>
	<polygon class="st1" points="290.6,131.8 296,131.8 296,129.6 290.6,129.6 290.6,127.3 296.7,127.3 296.7,125 288.1,125 
		288.1,136.4 296.8,136.4 296.8,134.2 290.6,134.2 	"/>
	<path class="st1" d="M195.8,113.2l-6.1-8.9c3.2-1.2,5.3-3.7,5.3-7.7v-0.1c0-2.4-0.7-4.3-2.1-5.7c-1.6-1.6-4.1-2.5-7.3-2.5h-11.4h0
		v24.9h5.5v-8h4.3l5.3,8H195.8z M185.3,100.4c0,0-5.5,0-5.5,0v-7.2h5.4c2.7,0,4.3,1.2,4.3,3.6v0.1C189.5,99,188,100.4,185.3,100.4z"
		/>
	<path class="st1" d="M81.7,78.5c-4.3,0-7.2-3.6-7.2-7.8v-0.1c0-4.3,3-7.8,7.2-7.8c2.5,0,4.5,1.1,6.4,2.8l3.5-4
		c-2.3-2.3-5.1-3.8-9.8-3.8c-7.6,0-13,5.8-13,12.9v0.1h0c0,7.1,5.4,12.8,12.8,12.8c4.8,0,7.6-1.7,10.2-4.5l-3.5-3.5
		C86.3,77.3,84.5,78.5,81.7,78.5z"/>
	<path class="st1" d="M106.3,83.5c7.7,0,13.3-5.8,13.3-12.9v-0.1c0-7.1-5.5-12.8-13.2-12.8s-13.3,5.8-13.3,12.9v0.1
		C93.2,77.8,98.7,83.5,106.3,83.5z M98.9,70.6c0-4.3,3.1-7.8,7.5-7.8c4.4,0,7.5,3.6,7.5,7.8v0.1c0,4.3-3.1,7.8-7.5,7.8
		C102,78.5,98.9,74.9,98.9,70.6L98.9,70.6z"/>
	<polygon class="st1" points="123.7,83.1 129.1,83.1 129.1,66.9 136,77.5 136.1,77.5 143.2,66.8 143.2,83.1 148.6,83.1 148.6,58.2 
		142.7,58.2 136.1,68.7 129.6,58.2 123.7,58.2 123.7,58.2 	"/>
	<path class="st1" d="M159.5,83.1v-7.5h4.2c5.6,0,10.1-3,10.1-8.8v-0.1c0-5.1-3.6-8.6-9.5-8.6H154v24.9H159.5z M163.7,63.1
		c2.7,0,4.5,1.3,4.5,3.8V67c0,2.1-1.6,3.8-4.3,3.8h-4.3v-7.6H163.7z"/>
	<polygon class="st1" points="154,58.2 154,58.2 154,58.2 	"/>
	<polygon class="st1" points="194.8,78.1 182.4,78.1 182.4,58.2 176.9,58.2 176.9,83.1 194.8,83.1 	"/>
	<polygon class="st1" points="216.7,78.2 203.2,78.2 203.2,73 214.9,73 214.9,68.1 203.2,68.1 203.2,63 216.5,63 216.5,58.2 
		197.8,58.2 197.8,58.2 197.8,83.1 216.7,83.1 	"/>
	<polygon class="st1" points="225.3,83.1 230.9,74.5 236.5,83.1 242.9,83.1 234.2,70.3 242.6,58.2 242.6,58.2 236.3,58.2 231,66.2 
		225.8,58.2 219.4,58.2 227.8,70.4 219.1,83.1 	"/>
	<rect x="246" y="58.2" class="st1" width="5.5" height="24.9"/>
	<polygon class="st1" points="262.1,83.1 267.6,83.1 267.6,63.2 275.1,63.2 275.1,58.2 254.5,58.2 254.5,63.2 262.1,63.2 	"/>
	<polygon class="st1" points="291.9,83.1 291.9,73.1 301.5,58.2 295.2,58.2 289.2,68.2 283.3,58.2 276.9,58.2 286.4,73.3 
		286.4,73.3 286.4,83.1 	"/>
</g>
</svg>
